<?xml version="1.0" encoding="utf-8"?>
<!-- Generator: Adobe Illustrator 24.1.0, SVG Export Plug-In . SVG Version: 6.00 Build 0)  -->
<svg version="1.1" id="Layer_1" xmlns="http://www.w3.org/2000/svg" xmlns:xlink="http://www.w3.org/1999/xlink" x="0px" y="0px"
	 viewBox="0 0 193.1 33.7" style="enable-background:new 0 0 193.1 33.7;" xml:space="preserve">
<style type="text/css">
	.st0{fill:#FFFFFF;}
	.st1{enable-background:new    ;}
</style>
<g id="logo" transform="translate(-232 -427)">
	<g id="Group_2" transform="translate(-908.074 313.925)">
		<g id="Group_1" transform="translate(1254.074 138.075)">
			<path id="Path_1" class="st0" d="M79.1-24.7H68.3l-4.1,7.1l-4.1-7.1H49.3L58.8-8L49.3,8.7h10.9l4-7.1l4,7.1h10.9L69.6-8
				L79.1-24.7z"/>
			<path id="Path_2" class="st0" d="M37.6-24.7c-9.2,0-16.7,7.5-16.7,16.7S28.4,8.7,37.6,8.7c9.2,0,16.7-7.5,16.7-16.7c0,0,0,0,0,0
				C54.3-17.2,46.8-24.7,37.6-24.7z M40.5-1.1c0,1.6-1.3,2.8-2.9,2.8c-1.5,0-2.8-1.3-2.8-2.8v-13.7c0-1.6,1.2-2.9,2.8-3
				c1.6,0.1,2.9,1.4,2.9,3L40.5-1.1z"/>
			<path id="Path_3" class="st0" d="M10.1,8.7V-2.1h9.2v-9.1h-9.2v-4.4h11.3l-0.6-9.1H0V8.7H10.1z"/>
		</g>
	</g>
	<g class="st1">
		<path class="st0" d="M234.3,427.1h8.5V453h8.9v7.3h-17.4V427.1z"/>
		<path class="st0" d="M254.4,427.1h8.5v33.2h-8.5V427.1z"/>
		<path class="st0" d="M298.6,427.1l-12.5,33.2h-8.6l-12.5-33.2h9l7.8,22.9l7.8-22.9H298.6z"/>
		<path class="st0" d="M300.8,427.1h22v7h-13.5v6.1h13.3v6.7h-13.3v6.5h13.5v7h-22V427.1z"/>
	</g>
	<path id="Path_10" class="st0" d="M334.5,451.2c-2.5,0-4.5,2-4.5,4.5c0,2.5,2,4.5,4.5,4.5c2.5,0,4.5-2,4.5-4.5l0,0
		C339.1,453.3,337.1,451.2,334.5,451.2z"/>
</g>
</svg>
